<?xml version="1.0" encoding="utf-8"?>
<!-- Generator: Adobe Illustrator 19.1.0, SVG Export Plug-In . SVG Version: 6.00 Build 0)  -->
<svg version="1.1" id="Layer_1" xmlns="http://www.w3.org/2000/svg" xmlns:xlink="http://www.w3.org/1999/xlink" x="0px" y="0px"
	 viewBox="0 0 3000 2027.3" style="enable-background:new 0 0 3000 2027.3;" xml:space="preserve">
<style type="text/css">
	.st0{fill:#00B0FF;}
	.st1{fill:#FFFFFF;}
	.st2{opacity:0.5;fill:#FFFFFF;}
</style>
<rect class="st0" width="3000" height="2027.3"/>
<g>
	<path class="st1" d="M1070.5,922.9h99.6V950h-72.4v27.2h54.3v27.2h-54.3v27.1h72.4v27.1h-99.6V922.9z"/>
	<path class="st1" d="M1325.3,1058.6h-32.4l-23.7-36.2h-21.4v36.2h-27.2V922.9h49.8c27.5,0,49.8,22.3,49.8,49.8
		c0,17.9-9.4,33.5-23.5,42.4L1325.3,1058.6z M1270.5,995.3c12.5,0,22.6-10.1,22.6-22.6S1283,950,1270.5,950h-22.6v45.2H1270.5z"/>
	<path class="st1" d="M1374.9,922.9h6.9l49.1,53l48.9-53h7.1l10.3,135.8h-27.2l-6-78.6l-33.1,35.8l-33.1-35.8l-6.2,78.6h-27.2
		L1374.9,922.9z"/>
	<path class="st1" d="M1636.9,1037.2h-66.2l-11.7,21.5h-29.3l74.1-135.8l74.3,135.8h-29.3L1636.9,1037.2z M1622.8,1011.4l-19.1-35
		l-19,35H1622.8z"/>
	<path class="st1" d="M1732.4,1058.6h-8.1l-52.1-135.8h29.1l27,70.6l27.1-70.6h6.2l27,70.6l27.2-70.6h29l-51.9,135.8h-8.1
		l-26.1-67.9L1732.4,1058.6z"/>
	<path class="st1" d="M2141.4,1017.9c0,22.4-18.3,40.7-40.7,40.7h-76.9V922.9h67.9c22.4,0,40.7,18.3,40.7,40.7
		c0,8.1-2.4,15.7-6.5,22.3C2135.2,993.3,2141.4,1004.9,2141.4,1017.9z M2100.7,1031.5c7.4,0,13.6-6.2,13.6-13.6s-6.2-13.6-13.6-13.6
		h-50v27.2H2100.7z M2091.6,977.2c7.4,0,13.6-6.2,13.6-13.6c0-7.4-6.2-13.6-13.6-13.6h-40.7v27.1H2091.6z"/>
	<path class="st1" d="M931.9,1025.2v18.9v5c0,3.4-0.7,6.6-2,9.5h30.3c0.6-3.1,0.9-6.2,0.9-9.5v-23.9H985c29.3,0,53.1-23.8,53.1-53.1
		c0-29.3-23.8-53.1-53.1-53.1c-29.3,0-53.1,23.8-53.1,53.1v18.6v5.3V1025.2z M961.1,972.2c0-13.2,10.7-23.9,23.9-23.9
		c13.2,0,23.9,10.7,23.9,23.9c0,13.2-10.7,23.9-23.9,23.9h-23.9V972.2z"/>
	<path class="st1" d="M1873.5,922.9h99.6V950h-72.4v27.2h54.3v27.2h-54.3v27.1h72.4v27.1h-99.6V922.9z"/>
	<path class="st2" d="M926.2,1064.6c-4.4,5.2-10.9,8.4-18.2,8.4c-13.2,0-23.9-10.7-23.9-23.9c0-13.2,10.7-23.9,23.9-23.9h17.9v-29.2
		H908c-29.3,0-53.1,23.8-53.1,53.1c0,29.3,23.8,53.1,53.1,53.1c23.9,0,44.1-15.9,50.7-37.6H926.2z"/>
</g>
</svg>
