<?xml version="1.0" encoding="utf-8"?>
<!-- Generator: Adobe Illustrator 19.1.0, SVG Export Plug-In . SVG Version: 6.00 Build 0)  -->
<svg version="1.1" id="Layer_1" xmlns="http://www.w3.org/2000/svg" xmlns:xlink="http://www.w3.org/1999/xlink" x="0px" y="0px"
	 viewBox="0 0 3000 2027.3" style="enable-background:new 0 0 3000 2027.3;" xml:space="preserve">
<style type="text/css">
	.st0{fill:#FF9100;}
	.st1{fill:#FFFFFF;}
</style>
<rect class="st0" width="3000" height="2027.3"/>
<g>
	<path class="st1" d="M1014.6,952.6h99.6v27.2h-72.4v27.2h54.3v27.2h-54.3v27.1h72.4v27.1h-99.6V952.6z"/>
	<path class="st1" d="M1269.4,1088.3H1237l-23.7-36.2H1192v36.2h-27.2V952.6h49.8c27.5,0,49.8,22.3,49.8,49.8
		c0,17.9-9.4,33.5-23.5,42.4L1269.4,1088.3z M1214.6,1025c12.5,0,22.6-10.1,22.6-22.6s-10.1-22.6-22.6-22.6H1192v45.2H1214.6z"/>
	<path class="st1" d="M1319,952.6h6.9l49.1,53l48.9-53h7.1l10.3,135.8H1414l-6-78.6l-33.1,35.8l-33.1-35.8l-6.2,78.6h-27.2
		L1319,952.6z"/>
	<path class="st1" d="M1581,1066.9h-66.2l-11.7,21.5h-29.3l74.1-135.8l74.3,135.8h-29.3L1581,1066.9z M1566.9,1041.1l-19.1-35
		l-19,35H1566.9z"/>
	<path class="st1" d="M1676.5,1088.3h-8.1l-52.1-135.8h29.1l27,70.6l27.1-70.6h6.2l27,70.6l27.2-70.6h29l-51.9,135.8h-8.1
		l-26.1-67.9L1676.5,1088.3z"/>
	<path class="st1" d="M2085.5,1047.6c0,22.4-18.3,40.7-40.7,40.7h-76.9V952.6h67.9c22.4,0,40.7,18.3,40.7,40.7
		c0,8.1-2.4,15.7-6.5,22.3C2079.3,1023,2085.5,1034.5,2085.5,1047.6z M2044.8,1061.2c7.4,0,13.6-6.2,13.6-13.6s-6.2-13.6-13.6-13.6
		h-50v27.2H2044.8z M2035.7,1006.9c7.4,0,13.6-6.2,13.6-13.6c0-7.4-6.2-13.6-13.6-13.6H1995v27.1H2035.7z"/>
	<path class="st1" d="M1817.6,952.6h99.6v27.2h-72.4v27.2h54.3v27.2h-54.3v27.1h72.4v27.1h-99.6V952.6z"/>
	<path class="st1" d="M929.1,948.8c-29.3,0-53.1,23.8-53.1,53.1v18.6v5.3v29.2v33.4h29.2v-33.4h23.9c29.3,0,53.1-23.8,53.1-53.1
		C982.2,972.6,958.4,948.8,929.1,948.8z M929.1,1025.8h-23.9v-23.9c0-13.2,10.7-23.9,23.9-23.9c13.2,0,23.9,10.7,23.9,23.9
		C953,1015,942.3,1025.8,929.1,1025.8z"/>
</g>
</svg>
