<?xml version="1.0" encoding="UTF-8" standalone="no"?>
<!-- Generator: Adobe Illustrator 19.1.0, SVG Export Plug-In . SVG Version: 6.00 Build 0)  -->

<svg
   xmlns:dc="http://purl.org/dc/elements/1.1/"
   xmlns:cc="http://creativecommons.org/ns#"
   xmlns:rdf="http://www.w3.org/1999/02/22-rdf-syntax-ns#"
   xmlns:svg="http://www.w3.org/2000/svg"
   xmlns="http://www.w3.org/2000/svg"
   xmlns:sodipodi="http://sodipodi.sourceforge.net/DTD/sodipodi-0.dtd"
   xmlns:inkscape="http://www.inkscape.org/namespaces/inkscape"
   version="1.1"
   id="Layer_1"
   x="0px"
   y="0px"
   viewBox="0 0 1286.5 183.19999"
   xml:space="preserve"
   sodipodi:docname="permaweb.svg"
   width="1286.5"
   height="183.2"
   inkscape:version="0.92.4 (unknown)"><metadata
   id="metadata31"><rdf:RDF><cc:Work
       rdf:about=""><dc:format>image/svg+xml</dc:format><dc:type
         rdf:resource="http://purl.org/dc/dcmitype/StillImage" /><dc:title></dc:title></cc:Work></rdf:RDF></metadata><defs
   id="defs29" /><sodipodi:namedview
   pagecolor="#ffffff"
   bordercolor="#666666"
   borderopacity="1"
   objecttolerance="10"
   gridtolerance="10"
   guidetolerance="10"
   inkscape:pageopacity="0"
   inkscape:pageshadow="2"
   inkscape:window-width="1920"
   inkscape:window-height="1037"
   id="namedview27"
   showgrid="false"
   inkscape:pagecheckerboard="true"
   inkscape:zoom="0.32925999"
   inkscape:cx="920.3921"
   inkscape:cy="436.99046"
   inkscape:window-x="1920"
   inkscape:window-y="43"
   inkscape:window-maximized="1"
   inkscape:current-layer="Layer_1" />
<style
   type="text/css"
   id="style2">
	.st0{fill:#FF5A5A;}
	.st1{fill:#FFFFFF;}
	.st2{opacity:0.5;fill:#FFFFFF;}
</style>

<g
   id="g24"
   transform="translate(-856.7,-922)">
	<path
   class="st1"
   d="m 1072.3,925.9 h 99.6 V 953 h -72.4 v 27.2 h 54.3 v 27.2 h -54.3 v 27.1 h 72.4 v 27.1 h -99.6 z"
   id="path6"
   inkscape:connector-curvature="0"
   style="fill:#ffffff" />
	<path
   class="st1"
   d="m 1327.2,1061.6 h -32.4 l -23.7,-36.2 h -21.4 v 36.2 h -27.2 V 925.9 h 49.8 c 27.5,0 49.8,22.3 49.8,49.8 0,17.9 -9.4,33.5 -23.5,42.4 z m -54.9,-63.3 c 12.5,0 22.6,-10.1 22.6,-22.6 0,-12.5 -10.1,-22.6 -22.6,-22.6 h -22.6 v 45.2 z"
   id="path8"
   inkscape:connector-curvature="0"
   style="fill:#ffffff" />
	<path
   class="st1"
   d="m 1376.8,925.9 h 6.9 l 49.1,53 48.9,-53 h 7.1 l 10.3,135.8 h -27.2 l -6,-78.6 -33.1,35.8 -33.1,-35.8 -6.2,78.6 h -27.2 z"
   id="path10"
   inkscape:connector-curvature="0"
   style="fill:#ffffff" />
	<path
   class="st1"
   d="m 1638.7,1040.2 h -66.2 l -11.7,21.5 h -29.3 l 74.1,-135.8 74.3,135.8 h -29.3 z m -14,-25.8 -19.1,-35 -19,35 z"
   id="path12"
   inkscape:connector-curvature="0"
   style="fill:#ffffff" />
	<path
   class="st1"
   d="m 1734.2,1061.6 h -8.1 L 1674,925.8 h 29.1 l 27,70.6 27.1,-70.6 h 6.2 l 27,70.6 27.2,-70.6 h 29 l -51.9,135.8 h -8.1 l -26.1,-67.9 z"
   id="path14"
   inkscape:connector-curvature="0"
   style="fill:#ffffff" />
	<path
   class="st1"
   d="m 2143.2,1020.9 c 0,22.4 -18.3,40.7 -40.7,40.7 h -76.9 V 925.9 h 67.9 c 22.4,0 40.7,18.3 40.7,40.7 0,8.1 -2.4,15.7 -6.5,22.3 9.4,7.4 15.5,19 15.5,32 z m -40.7,13.6 c 7.4,0 13.6,-6.2 13.6,-13.6 0,-7.4 -6.2,-13.6 -13.6,-13.6 h -50 v 27.2 z m -9,-54.3 c 7.4,0 13.6,-6.2 13.6,-13.6 0,-7.4 -6.2,-13.6 -13.6,-13.6 h -40.7 v 27.1 h 40.7 z"
   id="path16"
   inkscape:connector-curvature="0"
   style="fill:#ffffff" />
	<path
   class="st1"
   d="m 933.8,1028.2 v 18.9 5 c 0,3.4 -0.7,6.6 -2,9.5 h 30.3 c 0.6,-3.1 0.9,-6.2 0.9,-9.5 v -23.9 h 23.9 c 29.3,0 53.1,-23.8 53.1,-53.1 0,-29.3 -23.8,-53.1 -53.1,-53.1 -29.3,0 -53.1,23.8 -53.1,53.1 v 18.6 5.3 z m 29.1,-53 c 0,-13.2 10.7,-23.9 23.9,-23.9 13.2,0 23.9,10.7 23.9,23.9 0,13.2 -10.7,23.9 -23.9,23.9 h -23.9 z"
   id="path18"
   inkscape:connector-curvature="0"
   style="fill:#ffffff" />
	<path
   class="st1"
   d="M 1875.4,925.9 H 1975 V 953 h -72.4 v 27.2 h 54.3 v 27.2 h -54.3 v 27.1 h 72.4 v 27.1 h -99.6 z"
   id="path20"
   inkscape:connector-curvature="0"
   style="fill:#ffffff" />
	<path
   class="st2"
   d="m 928,1067.6 c -4.4,5.2 -10.9,8.4 -18.2,8.4 -13.2,0 -23.9,-10.7 -23.9,-23.9 0,-13.2 10.7,-23.9 23.9,-23.9 h 17.9 V 999 h -17.9 c -29.3,0 -53.1,23.8 -53.1,53.1 0,29.3 23.8,53.1 53.1,53.1 23.9,0 44.1,-15.9 50.7,-37.6 z"
   id="path22"
   inkscape:connector-curvature="0"
   style="opacity:0.5;fill:#ffffff" />
</g>
</svg>