<?xml version="1.0" encoding="UTF-8" standalone="no"?>
<!-- Generator: Adobe Illustrator 19.1.0, SVG Export Plug-In . SVG Version: 6.00 Build 0)  -->

<svg
   xmlns:dc="http://purl.org/dc/elements/1.1/"
   xmlns:cc="http://creativecommons.org/ns#"
   xmlns:rdf="http://www.w3.org/1999/02/22-rdf-syntax-ns#"
   xmlns:svg="http://www.w3.org/2000/svg"
   xmlns="http://www.w3.org/2000/svg"
   xmlns:sodipodi="http://sodipodi.sourceforge.net/DTD/sodipodi-0.dtd"
   xmlns:inkscape="http://www.inkscape.org/namespaces/inkscape"
   version="1.1"
   id="Layer_1"
   x="0px"
   y="0px"
   viewBox="0 0 1286.5 183.19999"
   xml:space="preserve"
   sodipodi:docname="permaweb-dark.svg"
   width="1286.5"
   height="183.2"
   inkscape:version="0.92.4 (unknown)"><metadata
   id="metadata31"><rdf:RDF><cc:Work
       rdf:about=""><dc:format>image/svg+xml</dc:format><dc:type
         rdf:resource="http://purl.org/dc/dcmitype/StillImage" /><dc:title></dc:title></cc:Work></rdf:RDF></metadata><defs
   id="defs29">
	
	
	
	
	
	
	
	
	
</defs><sodipodi:namedview
   pagecolor="#ffffff"
   bordercolor="#666666"
   borderopacity="1"
   objecttolerance="10"
   gridtolerance="10"
   guidetolerance="10"
   inkscape:pageopacity="0"
   inkscape:pageshadow="2"
   inkscape:window-width="1920"
   inkscape:window-height="1037"
   id="namedview27"
   showgrid="false"
   inkscape:pagecheckerboard="true"
   inkscape:zoom="0.65851999"
   inkscape:cx="710.54076"
   inkscape:cy="203.39907"
   inkscape:window-x="1920"
   inkscape:window-y="43"
   inkscape:window-maximized="1"
   inkscape:current-layer="Layer_1" />
<style
   type="text/css"
   id="style2">
	.st0{fill:#FF5A5A;}
	.st1{fill:#FFFFFF;}
	.st2{opacity:0.5;fill:#FFFFFF;}
</style>

<g
   id="g4807"><path
     class="st1"
     d="m 215.6,3.9 h 99.6 V 31 h -72.4 v 27.2 h 54.3 v 27.2 h -54.3 v 27.1 h 72.4 v 27.1 h -99.6 z"
     id="path6"
     inkscape:connector-curvature="0"
     style="fill:#090901;fill-opacity:1" /><path
     class="st1"
     d="M 470.5,139.6 H 438.1 L 414.4,103.4 H 393 v 36.2 H 365.8 V 3.9 h 49.8 c 27.5,0 49.8,22.3 49.8,49.8 0,17.9 -9.4,33.5 -23.5,42.4 z M 415.6,76.3 c 12.5,0 22.6,-10.1 22.6,-22.6 0,-12.5 -10.1,-22.6 -22.6,-22.6 H 393 v 45.2 z"
     id="path8"
     inkscape:connector-curvature="0"
     style="fill:#090901;fill-opacity:1" /><path
     class="st1"
     d="m 520.1,3.9 h 6.9 l 49.1,53 48.9,-53 h 7.1 l 10.3,135.8 h -27.2 l -6,-78.6 -33.1,35.8 -33.1,-35.8 -6.2,78.6 h -27.2 z"
     id="path10"
     inkscape:connector-curvature="0"
     style="fill:#090901;fill-opacity:1" /><path
     class="st1"
     d="m 782,118.2 h -66.2 l -11.7,21.5 H 674.8 L 748.9,3.9 823.2,139.7 h -29.3 z m -14,-25.8 -19.1,-35 -19,35 z"
     id="path12"
     inkscape:connector-curvature="0"
     style="fill:#090901;fill-opacity:1" /><path
     class="st1"
     d="m 877.5,139.6 h -8.1 L 817.3,3.8 h 29.1 l 27,70.6 27.1,-70.6 h 6.2 l 27,70.6 27.2,-70.6 h 29 L 938,139.6 h -8.1 L 903.8,71.7 Z"
     id="path14"
     inkscape:connector-curvature="0"
     style="fill:#090901;fill-opacity:1" /><path
     class="st1"
     d="m 1286.5,98.9 c 0,22.4 -18.3,40.7 -40.7,40.7 h -76.9 V 3.9 h 67.9 c 22.4,0 40.7,18.3 40.7,40.7 0,8.1 -2.4,15.7 -6.5,22.3 9.4,7.4 15.5,19 15.5,32 z m -40.7,13.6 c 7.4,0 13.6,-6.2 13.6,-13.6 0,-7.4 -6.2,-13.6 -13.6,-13.6 h -50 v 27.2 z m -9,-54.3 c 7.4,0 13.6,-6.2 13.6,-13.6 0,-7.4 -6.2,-13.6 -13.6,-13.6 h -40.7 v 27.1 h 40.7 z"
     id="path16"
     inkscape:connector-curvature="0"
     style="fill:#090901;fill-opacity:1" /><path
     class="st1"
     d="m 77.1,106.2 v 18.9 5 c 0,3.4 -0.7,6.6 -2,9.5 h 30.3 c 0.6,-3.1 0.9,-6.2 0.9,-9.5 v -23.9 h 23.9 c 29.3,0 53.1,-23.8 53.1,-53.1 C 183.3,23.8 159.5,0 130.2,0 100.9,0 77.1,23.8 77.1,53.1 V 71.7 77 Z m 29.1,-53 c 0,-13.2 10.7,-23.9 23.9,-23.9 13.2,0 23.9,10.7 23.9,23.9 0,13.2 -10.7,23.9 -23.9,23.9 h -23.9 z"
     id="path18"
     inkscape:connector-curvature="0"
     style="fill:#090901;fill-opacity:1" /><path
     class="st1"
     d="m 1018.7,3.9 h 99.6 V 31 h -72.4 v 27.2 h 54.3 v 27.2 h -54.3 v 27.1 h 72.4 v 27.1 h -99.6 z"
     id="path20"
     inkscape:connector-curvature="0"
     style="fill:#090901;fill-opacity:1" /><path
     class="st2"
     d="m 71.3,145.6 c -4.4,5.2 -10.9,8.4 -18.2,8.4 -13.2,0 -23.9,-10.7 -23.9,-23.9 0,-13.2 10.7,-23.9 23.9,-23.9 H 71 V 77 H 53.1 C 23.8,77 0,100.8 0,130.1 c 0,29.3 23.8,53.1 53.1,53.1 23.9,0 44.1,-15.9 50.7,-37.6 z"
     id="path22"
     inkscape:connector-curvature="0"
     style="opacity:0.5;fill:#090901;fill-opacity:1" /></g>
</svg>