<?xml version="1.0" encoding="utf-8"?>
<!-- Generator: Adobe Illustrator 19.1.0, SVG Export Plug-In . SVG Version: 6.00 Build 0)  -->
<svg version="1.1" id="Layer_1" xmlns="http://www.w3.org/2000/svg" xmlns:xlink="http://www.w3.org/1999/xlink" x="0px" y="0px"
	 viewBox="0 0 3000 2027.3" style="enable-background:new 0 0 3000 2027.3;" xml:space="preserve">
<style type="text/css">
	.st0{fill:#FF5A5A;}
	.st1{fill:#FFFFFF;}
	.st2{opacity:0.5;fill:#FFFFFF;}
</style>
<rect x="0" y="0" class="st0" width="3000" height="2027.3"/>
<g>
	<path class="st1" d="M1072.3,925.9h99.6V953h-72.4v27.2h54.3v27.2h-54.3v27.1h72.4v27.1h-99.6V925.9z"/>
	<path class="st1" d="M1327.2,1061.6h-32.4l-23.7-36.2h-21.4v36.2h-27.2V925.9h49.8c27.5,0,49.8,22.3,49.8,49.8
		c0,17.9-9.4,33.5-23.5,42.4L1327.2,1061.6z M1272.3,998.3c12.5,0,22.6-10.1,22.6-22.6s-10.1-22.6-22.6-22.6h-22.6v45.2H1272.3z"/>
	<path class="st1" d="M1376.8,925.9h6.9l49.1,53l48.9-53h7.1l10.3,135.8h-27.2l-6-78.6l-33.1,35.8l-33.1-35.8l-6.2,78.6h-27.2
		L1376.8,925.9z"/>
	<path class="st1" d="M1638.7,1040.2h-66.2l-11.7,21.5h-29.3l74.1-135.8l74.3,135.8h-29.3L1638.7,1040.2z M1624.7,1014.4l-19.1-35
		l-19,35H1624.7z"/>
	<path class="st1" d="M1734.2,1061.6h-8.1l-52.1-135.8h29.1l27,70.6l27.1-70.6h6.2l27,70.6l27.2-70.6h29l-51.9,135.8h-8.1
		l-26.1-67.9L1734.2,1061.6z"/>
	<path class="st1" d="M2143.2,1020.9c0,22.4-18.3,40.7-40.7,40.7h-76.9V925.9h67.9c22.4,0,40.7,18.3,40.7,40.7
		c0,8.1-2.4,15.7-6.5,22.3C2137.1,996.3,2143.2,1007.9,2143.2,1020.9z M2102.5,1034.5c7.4,0,13.6-6.2,13.6-13.6s-6.2-13.6-13.6-13.6
		h-50v27.2H2102.5z M2093.5,980.2c7.4,0,13.6-6.2,13.6-13.6c0-7.4-6.2-13.6-13.6-13.6h-40.7v27.1H2093.5z"/>
	<path class="st1" d="M933.8,1028.2v18.9v5c0,3.4-0.7,6.6-2,9.5h30.3c0.6-3.1,0.9-6.2,0.9-9.5v-23.9h23.9
		c29.3,0,53.1-23.8,53.1-53.1c0-29.3-23.8-53.1-53.1-53.1c-29.3,0-53.1,23.8-53.1,53.1v18.6v5.3V1028.2z M962.9,975.2
		c0-13.2,10.7-23.9,23.9-23.9s23.9,10.7,23.9,23.9c0,13.2-10.7,23.9-23.9,23.9h-23.9V975.2z"/>
	<path class="st1" d="M1875.4,925.9h99.6V953h-72.4v27.2h54.3v27.2h-54.3v27.1h72.4v27.1h-99.6V925.9z"/>
	<path class="st2" d="M928,1067.6c-4.4,5.2-10.9,8.4-18.2,8.4c-13.2,0-23.9-10.7-23.9-23.9c0-13.2,10.7-23.9,23.9-23.9h17.9v-29.2
		h-17.9c-29.3,0-53.1,23.8-53.1,53.1c0,29.3,23.8,53.1,53.1,53.1c23.9,0,44.1-15.9,50.7-37.6H928z"/>
</g>
</svg>
