<?xml version="1.0" encoding="UTF-8" standalone="no"?>
<!-- Generator: Adobe Illustrator 19.1.0, SVG Export Plug-In . SVG Version: 6.00 Build 0)  -->

<svg
   xmlns:dc="http://purl.org/dc/elements/1.1/"
   xmlns:cc="http://creativecommons.org/ns#"
   xmlns:rdf="http://www.w3.org/1999/02/22-rdf-syntax-ns#"
   xmlns:svg="http://www.w3.org/2000/svg"
   xmlns="http://www.w3.org/2000/svg"
   xmlns:sodipodi="http://sodipodi.sourceforge.net/DTD/sodipodi-0.dtd"
   xmlns:inkscape="http://www.inkscape.org/namespaces/inkscape"
   version="1.1"
   id="Layer_1"
   x="0px"
   y="0px"
   viewBox="0 0 3000 2027.3"
   style="enable-background:new 0 0 3000 2027.3;"
   xml:space="preserve"
   sodipodi:docname="permaweb-text-black.svg"
   inkscape:version="0.92.4 (unknown)"><metadata
   id="metadata29"><rdf:RDF><cc:Work
       rdf:about=""><dc:format>image/svg+xml</dc:format><dc:type
         rdf:resource="http://purl.org/dc/dcmitype/StillImage" /><dc:title /></cc:Work></rdf:RDF></metadata><defs
   id="defs27">
	
	
	
	
	
	
	
	
</defs><sodipodi:namedview
   pagecolor="#ffffff"
   bordercolor="#666666"
   borderopacity="1"
   objecttolerance="10"
   gridtolerance="10"
   guidetolerance="10"
   inkscape:pageopacity="0"
   inkscape:pageshadow="2"
   inkscape:window-width="1920"
   inkscape:window-height="1037"
   id="namedview25"
   showgrid="false"
   inkscape:zoom="0.32925999"
   inkscape:cx="1747.3988"
   inkscape:cy="946.78755"
   inkscape:window-x="1920"
   inkscape:window-y="43"
   inkscape:window-maximized="1"
   inkscape:current-layer="Layer_1" />
<style
   type="text/css"
   id="style2">
	.st0{fill:#00B0FF;}
	.st1{fill:#FFFFFF;}
</style>
<rect
   x="0"
   y="0"
   class="st0"
   width="3000"
   height="2027.3"
   id="rect4"
   style="fill:#ffffff;fill-opacity:1" />
<g
   id="g4781"><path
     class="st1"
     d="m 1033.8,947.7 h 99.6 v 27.2 H 1061 v 27.2 h 54.3 v 27.2 H 1061 v 27.1 h 72.4 v 27.1 h -99.6 z"
     id="path6"
     inkscape:connector-curvature="0"
     style="fill:#000000;fill-opacity:1" /><path
     class="st1"
     d="m 1288.7,1083.4 h -32.4 l -23.7,-36.2 h -21.4 v 36.2 H 1184 V 947.7 h 49.8 c 27.5,0 49.8,22.3 49.8,49.8 0,17.9 -9.4,33.5 -23.5,42.4 z m -54.9,-63.3 c 12.5,0 22.6,-10.1 22.6,-22.6 0,-12.5 -10.1,-22.6 -22.6,-22.6 h -22.6 v 45.2 z"
     id="path8"
     inkscape:connector-curvature="0"
     style="fill:#000000;fill-opacity:1" /><path
     class="st1"
     d="m 1338.3,947.7 h 6.9 l 49.1,53 48.9,-53 h 7.1 l 10.3,135.8 h -27.2 l -6,-78.6 -33.1,35.8 -33.1,-35.8 -6.2,78.6 h -27.2 z"
     id="path10"
     inkscape:connector-curvature="0"
     style="fill:#000000;fill-opacity:1" /><path
     class="st1"
     d="M 1600.3,1062 H 1534 l -11.7,21.5 H 1493 l 74.1,-135.8 74.3,135.8 h -29.3 z m -14.1,-25.8 -19.1,-35 -19,35 z"
     id="path12"
     inkscape:connector-curvature="0"
     style="fill:#000000;fill-opacity:1" /><path
     class="st1"
     d="m 1695.7,1083.4 h -8.1 l -52.1,-135.8 h 29.1 l 27,70.6 27.1,-70.6 h 6.2 l 27,70.6 27.2,-70.6 h 29 l -51.9,135.8 h -8.1 l -26.1,-67.9 z"
     id="path14"
     inkscape:connector-curvature="0"
     style="fill:#000000;fill-opacity:1" /><path
     class="st1"
     d="m 2104.7,1042.7 c 0,22.4 -18.3,40.7 -40.7,40.7 h -76.9 V 947.7 h 67.9 c 22.4,0 40.7,18.3 40.7,40.7 0,8.1 -2.4,15.7 -6.5,22.3 9.4,7.4 15.5,19 15.5,32 z m -40.7,13.6 c 7.4,0 13.6,-6.2 13.6,-13.6 0,-7.4 -6.2,-13.6 -13.6,-13.6 h -50 v 27.2 z m -9,-54.3 c 7.4,0 13.6,-6.2 13.6,-13.6 0,-7.4 -6.2,-13.6 -13.6,-13.6 h -40.7 v 27.1 h 40.7 z"
     id="path16"
     inkscape:connector-curvature="0"
     style="fill:#000000;fill-opacity:1" /><path
     class="st1"
     d="m 1836.9,947.7 h 99.6 v 27.2 H 1864 v 27.2 h 54.3 v 27.2 H 1864 v 27.1 h 72.4 v 27.1 h -99.6 V 947.7 Z"
     id="path18"
     inkscape:connector-curvature="0"
     style="fill:#000000;fill-opacity:1" /><path
     class="st1"
     d="m 948.3,943.9 c -29.3,0 -53.1,23.8 -53.1,53.1 v 18.6 5.3 29.2 33.4 h 29.2 v -33.4 h 23.9 c 29.3,0 53.1,-23.8 53.1,-53.1 0,-29.3 -23.8,-53.1 -53.1,-53.1 z m 0,77 H 924.4 V 997 c 0,-13.2 10.7,-23.9 23.9,-23.9 13.2,0 23.9,10.7 23.9,23.9 0,13.2 -10.7,23.9 -23.9,23.9 z"
     id="path20"
     inkscape:connector-curvature="0"
     style="fill:#000000;fill-opacity:1" /></g>
</svg>