<?xml version="1.0" encoding="utf-8"?>
<!-- Generator: Adobe Illustrator 19.1.0, SVG Export Plug-In . SVG Version: 6.00 Build 0)  -->
<svg version="1.1" id="Layer_1" xmlns="http://www.w3.org/2000/svg" xmlns:xlink="http://www.w3.org/1999/xlink" x="0px" y="0px"
	 viewBox="0 0 3000 2027.3" style="enable-background:new 0 0 3000 2027.3;" xml:space="preserve">
<style type="text/css">
	.st0{fill:#00B0FF;}
	.st1{fill:#FFFFFF;}
</style>
<rect x="0" y="0" class="st0" width="3000" height="2027.3"/>
<g>
	<path class="st1" d="M1033.8,947.7h99.6v27.2H1061v27.2h54.3v27.2H1061v27.1h72.4v27.1h-99.6V947.7z"/>
	<path class="st1" d="M1288.7,1083.4h-32.4l-23.7-36.2h-21.4v36.2h-27.2V947.7h49.8c27.5,0,49.8,22.3,49.8,49.8
		c0,17.9-9.4,33.5-23.5,42.4L1288.7,1083.4z M1233.8,1020.1c12.5,0,22.6-10.1,22.6-22.6s-10.1-22.6-22.6-22.6h-22.6v45.2H1233.8z"/>
	<path class="st1" d="M1338.3,947.7h6.9l49.1,53l48.9-53h7.1l10.3,135.8h-27.2l-6-78.6l-33.1,35.8l-33.1-35.8l-6.2,78.6h-27.2
		L1338.3,947.7z"/>
	<path class="st1" d="M1600.3,1062H1534l-11.7,21.5H1493l74.1-135.8l74.3,135.8h-29.3L1600.3,1062z M1586.2,1036.2l-19.1-35l-19,35
		H1586.2z"/>
	<path class="st1" d="M1695.7,1083.4h-8.1l-52.1-135.8h29.1l27,70.6l27.1-70.6h6.2l27,70.6l27.2-70.6h29l-51.9,135.8h-8.1
		l-26.1-67.9L1695.7,1083.4z"/>
	<path class="st1" d="M2104.7,1042.7c0,22.4-18.3,40.7-40.7,40.7h-76.9V947.7h67.9c22.4,0,40.7,18.3,40.7,40.7
		c0,8.1-2.4,15.7-6.5,22.3C2098.6,1018.1,2104.7,1029.7,2104.7,1042.7z M2064,1056.3c7.4,0,13.6-6.2,13.6-13.6s-6.2-13.6-13.6-13.6
		h-50v27.2H2064z M2055,1002c7.4,0,13.6-6.2,13.6-13.6c0-7.4-6.2-13.6-13.6-13.6h-40.7v27.1H2055z"/>
	<path class="st1" d="M1836.9,947.7h99.6v27.2H1864v27.2h54.3v27.2H1864v27.1h72.4v27.1h-99.6V947.7z"/>
	<path class="st1" d="M948.3,943.9c-29.3,0-53.1,23.8-53.1,53.1v18.6v5.3v29.2v33.4h29.2v-33.4h23.9c29.3,0,53.1-23.8,53.1-53.1
		C1001.4,967.7,977.6,943.9,948.3,943.9z M948.3,1020.9h-23.9V997c0-13.2,10.7-23.9,23.9-23.9c13.2,0,23.9,10.7,23.9,23.9
		C972.2,1010.2,961.5,1020.9,948.3,1020.9z"/>
</g>
</svg>
