<?xml version="1.0" encoding="utf-8"?>
<!-- Generator: Adobe Illustrator 19.1.0, SVG Export Plug-In . SVG Version: 6.00 Build 0)  -->
<svg version="1.1" id="Layer_1" xmlns="http://www.w3.org/2000/svg" xmlns:xlink="http://www.w3.org/1999/xlink" x="0px" y="0px"
	 viewBox="0 0 3000 2027.3" style="enable-background:new 0 0 3000 2027.3;" xml:space="preserve">
<style type="text/css">
	.st0{fill:#00B0FF;}
	.st1{fill:#FFFFFF;}
	.st2{opacity:0.5;fill:#FFFFFF;}
</style>
<rect x="0" y="0" class="st0" width="3000" height="2027.3"/>
<g>
	<path class="st1" d="M1397.8,1115.9v132.6v34.9c0,23.5-4.9,45.9-13.7,66.3h212.1c3.9-21.5,6-43.7,6-66.3v-167.5h167.5
		c205.1,0,371.9-166.8,371.9-371.9c0-205.1-166.8-371.9-371.9-371.9c-205.1,0-371.9,166.8-371.9,371.9v130v37.4V1115.9z M1602.2,744
		c0-92.3,75.1-167.5,167.5-167.5c92.3,0,167.5,75.1,167.5,167.5s-75.1,167.5-167.5,167.5h-167.5V744z"/>
	<path class="st2" d="M1357.8,1391.7c-30.7,36.1-76.4,59.1-127.5,59.1c-92.3,0-167.5-75.1-167.5-167.5
		c0-92.3,75.1-167.5,167.5-167.5h125.4V911.5h-125.4c-205.1,0-371.9,166.8-371.9,371.9c0,205.1,166.8,371.9,371.9,371.9
		c167.4,0,309.1-111.2,355.6-263.5H1357.8z"/>
</g>
</svg>
